PathFileType	4	(X/Y/Z)	C:/Users/Rosti/Documents/GitHub/TechForParalysis/Code/Model/04122019 - Marker Volunteer01/Rosti Data/New Session 103.trc	
DataRate	CameraRate	NumFrames	NumMarkers	Units	OrigDataRate	OrigDataStartFrame	OrigNumFrames	
100.00	100.00	26	14	mm	100.00	156	620	
Frame#	Time	C7			PX			T8			IJ			SC			AC			AI			TS			AA			GH			LE			ME			US			RS			
		X1	Y1	Z1	X2	Y2	Z2	X3	Y3	Z3	X4	Y4	Z4	X5	Y5	Z5	X6	Y6	Z6	X7	Y7	Z7	X8	Y8	Z8	X9	Y9	Z9	X10	Y10	Z10	X11	Y11	Z11	X12	Y12	Z12	X13	Y13	Z13	X14	Y14	Z14	

156	1.55	13.2152	1534.2	701.514	-20.3933	1293.87	465.465	8.97061	1318.62	767.076	-15.8189	1435.3	536.019	9.60106	1442.72	540.292	159.107	1474.23	603.295	94.5203	1453.59	734.906	91.6074	1335.19	766.2	209.03	1427.66	671.578	220.593	1440.71	630.982	253.541	1150.36	553.119	167.752	1133.03	517.156	284.959	897.764	430.427	351.969	934.456	420.432
157	1.56	13.186	1534.2	701.527	-20.3949	1293.9	465.438	8.9415	1318.61	767.077	-15.8289	1435.31	536.022	9.59872	1442.74	540.29	159.083	1474.23	603.306	94.4892	1453.58	734.922	91.5846	1335.18	766.209	209.005	1427.65	671.598	220.574	1440.7	631	253.516	1150.36	553.12	167.767	1133.02	517.162	284.978	897.76	430.432	351.995	934.465	420.445
158	1.57	13.1599	1534.18	701.539	-20.3988	1293.93	465.415	8.91255	1318.61	767.068	-15.8356	1435.33	536.03	9.58559	1442.76	540.294	159.066	1474.23	603.317	94.46	1453.56	734.94	91.5604	1335.15	766.214	208.976	1427.64	671.612	220.559	1440.7	631.011	253.486	1150.35	553.119	167.784	1133.01	517.225	284.991	897.747	430.44	352.015	934.466	420.461
159	1.58	13.1378	1534.16	701.549	-20.4042	1293.95	465.401	8.88423	1318.59	767.049	-15.8404	1435.35	536.042	9.56858	1442.77	540.305	159.057	1474.23	603.334	94.4389	1453.54	734.958	91.5382	1335.12	766.219	208.95	1427.61	671.626	220.553	1440.68	631.022	253.464	1150.33	553.117	167.796	1133	517.317	284.996	897.738	430.439	352.029	934.463	420.479
160	1.59	13.1199	1534.14	701.56	-20.4112	1293.97	465.397	8.85716	1318.58	767.022	-15.8446	1435.37	536.058	9.55313	1442.77	540.323	159.053	1474.22	603.358	94.4261	1453.52	734.977	91.5195	1335.1	766.224	208.93	1427.59	671.644	220.551	1440.67	631.037	253.456	1150.32	553.117	167.796	1133	517.419	284.99	897.739	430.42	352.038	934.462	420.495
161	1.6	13.1054	1534.12	701.573	-20.4192	1293.98	465.398	8.83201	1318.56	766.988	-15.8496	1435.39	536.075	9.54368	1442.76	540.343	159.05	1474.22	603.384	94.4169	1453.5	734.994	91.503	1335.08	766.228	208.919	1427.58	671.668	220.544	1440.66	631.054	253.456	1150.32	553.12	167.779	1133.02	517.516	284.977	897.758	430.392	352.042	934.471	420.501
162	1.61	13.0928	1534.1	701.59	-20.4261	1294	465.394	8.80938	1318.54	766.952	-15.856	1435.41	536.093	9.54111	1442.76	540.364	159.046	1474.23	603.41	94.4068	1453.49	735.009	91.4863	1335.07	766.229	208.916	1427.58	671.697	220.528	1440.65	631.072	253.459	1150.33	553.125	167.749	1133.04	517.586	284.968	897.793	430.364	352.039	934.493	420.497
163	1.62	13.0804	1534.1	701.613	-20.4336	1294.03	465.381	8.78971	1318.51	766.918	-15.8629	1435.43	536.112	9.54145	1442.75	540.382	159.039	1474.24	603.432	94.394	1453.49	735.022	91.4681	1335.06	766.23	208.915	1427.61	671.727	220.504	1440.66	631.092	253.464	1150.35	553.129	167.714	1133.07	517.618	284.965	897.835	430.34	352.03	934.523	420.485
164	1.63	13.0684	1534.1	701.642	-20.4468	1294.06	465.364	8.77322	1318.49	766.89	-15.8685	1435.46	536.131	9.53973	1442.76	540.398	159.03	1474.26	603.451	94.3797	1453.5	735.037	91.4489	1335.06	766.234	208.911	1427.63	671.754	220.484	1440.68	631.117	253.472	1150.38	553.131	167.688	1133.1	517.618	284.959	897.87	430.313	352.017	934.555	420.469
165	1.64	13.0599	1534.1	701.671	-20.4653	1294.08	465.352	8.75997	1318.48	766.873	-15.8703	1435.48	536.15	9.52883	1442.78	540.417	159.019	1474.26	603.469	94.3663	1453.51	735.055	91.4307	1335.06	766.249	208.905	1427.64	671.78	220.474	1440.69	631.145	253.478	1150.4	553.13	167.678	1133.11	517.599	284.947	897.889	430.283	352.004	934.576	420.455
166	1.65	13.0582	1534.08	701.692	-20.4828	1294.1	465.347	8.74988	1318.46	766.867	-15.8664	1435.5	536.169	9.50769	1442.78	540.444	159.005	1474.26	603.489	94.3566	1453.49	735.077	91.4172	1335.06	766.275	208.903	1427.63	671.804	220.472	1440.69	631.177	253.471	1150.4	553.13	167.684	1133.12	517.57	284.932	897.888	430.258	351.992	934.582	420.446
167	1.66	13.0638	1534.05	701.706	-20.4943	1294.12	465.349	8.74274	1318.44	766.87	-15.8554	1435.53	536.188	9.48071	1442.78	540.484	158.992	1474.24	603.515	94.3515	1453.47	735.104	91.4109	1335.05	766.309	208.907	1427.61	671.829	220.472	1440.68	631.212	253.447	1150.38	553.133	167.702	1133.11	517.537	284.916	897.872	430.241	351.983	934.574	420.439
168	1.67	13.0729	1534	701.717	-20.5008	1294.14	465.351	8.73826	1318.43	766.881	-15.8368	1435.55	536.207	9.45888	1442.78	540.529	158.984	1474.23	603.551	94.3491	1453.44	735.134	91.4105	1335.04	766.34	208.908	1427.59	671.854	220.472	1440.66	631.249	253.417	1150.36	553.135	167.727	1133.1	517.506	284.899	897.856	430.224	351.978	934.565	420.432
169	1.68	13.0802	1533.97	701.734	-20.5075	1294.17	465.345	8.73607	1318.42	766.897	-15.8114	1435.57	536.227	9.44778	1442.8	540.567	158.983	1474.23	603.593	94.3475	1453.41	735.162	91.4126	1335.02	766.361	208.903	1427.56	671.878	220.469	1440.65	631.286	253.398	1150.35	553.132	167.757	1133.1	517.482	284.879	897.854	430.202	351.972	934.564	420.418
170	1.69	13.0818	1533.95	701.761	-20.5176	1294.22	465.331	8.73582	1318.41	766.917	-15.7809	1435.59	536.248	9.43723	1442.85	540.595	158.991	1474.24	603.633	94.3464	1453.39	735.185	91.4145	1335	766.368	208.893	1427.55	671.899	220.466	1440.65	631.317	253.397	1150.36	553.122	167.784	1133.12	517.469	284.859	897.874	430.17	351.962	934.58	420.395
171	1.7	13.0776	1533.95	701.799	-20.5298	1294.26	465.311	8.73714	1318.4	766.942	-15.7473	1435.61	536.271	9.42422	1442.9	540.617	159.003	1474.27	603.663	94.3456	1453.38	735.201	91.4151	1334.99	766.367	208.882	1427.55	671.919	220.471	1440.67	631.336	253.407	1150.4	553.109	167.803	1133.16	517.459	284.841	897.91	430.124	351.947	934.611	420.364
172	1.71	13.0722	1533.97	701.843	-20.5407	1294.29	465.295	8.73972	1318.4	766.971	-15.7131	1435.63	536.295	9.41803	1442.94	540.634	159.015	1474.29	603.679	94.3452	1453.38	735.21	91.4149	1334.98	766.367	208.88	1427.56	671.934	220.488	1440.69	631.343	253.412	1150.43	553.1	167.812	1133.2	517.447	284.828	897.956	430.059	351.931	934.649	420.326
173	1.72	13.0718	1533.99	701.89	-20.5499	1294.31	465.291	8.74331	1318.39	767.004	-15.681	1435.64	536.32	9.41596	1442.94	540.657	159.024	1474.29	603.683	94.3468	1453.37	735.218	91.4152	1334.97	766.377	208.89	1427.58	671.944	220.511	1440.7	631.343	253.403	1150.44	553.105	167.818	1133.25	517.441	284.814	898.004	429.972	351.915	934.683	420.282
174	1.73	13.08	1534.01	701.937	-20.561	1294.32	465.302	8.74774	1318.39	767.04	-15.6535	1435.65	536.344	9.41196	1442.9	540.689	159.03	1474.28	603.683	94.3525	1453.36	735.227	91.4186	1334.97	766.398	208.906	1427.58	671.956	220.533	1440.71	631.344	253.382	1150.42	553.127	167.829	1133.29	517.454	284.789	898.049	429.867	351.899	934.706	420.236
175	1.74	13.0974	1534.03	701.981	-20.5763	1294.32	465.325	8.75282	1318.38	767.076	-15.6321	1435.66	536.368	9.40632	1442.87	540.722	159.032	1474.26	603.685	94.3629	1453.35	735.24	91.4257	1334.97	766.424	208.92	1427.58	671.974	220.549	1440.72	631.351	253.351	1150.39	553.164	167.852	1133.32	517.494	284.753	898.09	429.748	351.886	934.725	420.194
176	1.75	13.123	1534.02	702.014	-20.5946	1294.33	465.348	8.75831	1318.38	767.108	-15.6173	1435.66	536.392	9.39852	1442.85	540.752	159.033	1474.24	603.692	94.3755	1453.33	735.255	91.4357	1334.96	766.446	208.93	1427.58	671.997	220.56	1440.72	631.361	253.302	1150.34	553.211	167.889	1133.36	517.56	284.709	898.127	429.62	351.873	934.744	420.155
177	1.76	13.1541	1534	702.031	-20.6126	1294.36	465.36	8.76384	1318.37	767.136	-15.6084	1435.67	536.414	9.39008	1442.85	540.778	159.037	1474.23	603.705	94.3878	1453.33	735.27	91.4468	1334.95	766.458	208.941	1427.58	672.022	220.571	1440.72	631.374	253.231	1150.29	553.263	167.941	1133.39	517.639	284.66	898.164	429.481	351.86	934.765	420.112
178	1.77	13.1866	1533.98	702.037	-20.6261	1294.39	465.356	8.76895	1318.37	767.161	-15.6036	1435.68	536.436	9.38618	1442.86	540.802	159.048	1474.23	603.721	94.3995	1453.32	735.284	91.4581	1334.94	766.46	208.957	1427.58	672.049	220.589	1440.72	631.391	253.15	1150.25	553.309	167.995	1133.41	517.706	284.613	898.209	429.317	351.843	934.788	420.059
179	1.78	13.2158	1533.94	702.04	-20.6308	1294.42	465.344	8.77316	1318.36	767.185	-15.6005	1435.7	536.458	9.39123	1442.88	540.823	159.064	1474.23	603.743	94.4118	1453.32	735.295	91.47	1334.92	766.457	208.976	1427.58	672.076	220.608	1440.72	631.42	253.082	1150.22	553.335	168.03	1133.42	517.741	284.578	898.273	429.117	351.823	934.815	419.986
180	1.79	13.2388	1533.92	702.05	-20.6248	1294.44	465.331	8.77598	1318.35	767.213	-15.5971	1435.72	536.48	9.40745	1442.89	540.842	159.086	1474.23	603.776	94.426	1453.31	735.308	91.4827	1334.9	766.456	208.993	1427.57	672.108	220.624	1440.71	631.466	253.047	1150.2	553.332	168.024	1133.41	517.733	284.556	898.357	428.886	351.806	934.854	419.884
181	1.8	13.2548	1533.91	702.07	-20.6118	1294.46	465.327	8.77703	1318.34	767.251	-15.592	1435.75	536.501	9.42952	1442.9	540.861	159.11	1474.22	603.819	94.4419	1453.3	735.326	91.4947	1334.89	766.467	209.005	1427.56	672.147	220.637	1440.7	631.53	253.046	1150.19	553.299	167.978	1133.4	517.688	284.534	898.453	428.641	351.8	934.915	419.745
